<?xml version="1.0" encoding="UTF-8" standalone="no"?>
<!-- Created with Inkscape (http://www.inkscape.org/) -->

<svg
   width="173.72736mm"
   height="120.15457mm"
   viewBox="0 0 173.72736 120.15457"
   version="1.1"
   id="svg1"
   xml:space="preserve"
   inkscape:version="1.4.2 (ebf0e940, 2025-05-08)"
   sodipodi:docname="logo-full.svg"
   inkscape:export-filename="../Downloads/logo-full.svg"
   inkscape:export-xdpi="96"
   inkscape:export-ydpi="96"
   xmlns:inkscape="http://www.inkscape.org/namespaces/inkscape"
   xmlns:sodipodi="http://sodipodi.sourceforge.net/DTD/sodipodi-0.dtd"
   xmlns="http://www.w3.org/2000/svg"
   xmlns:svg="http://www.w3.org/2000/svg"><sodipodi:namedview
     id="namedview1"
     pagecolor="#ffffff"
     bordercolor="#000000"
     borderopacity="0.25"
     inkscape:showpageshadow="2"
     inkscape:pageopacity="0.0"
     inkscape:pagecheckerboard="0"
     inkscape:deskcolor="#d1d1d1"
     inkscape:document-units="mm"
     inkscape:zoom="1.4289282"
     inkscape:cx="223.94407"
     inkscape:cy="214.84634"
     inkscape:window-width="1920"
     inkscape:window-height="951"
     inkscape:window-x="1024"
     inkscape:window-y="25"
     inkscape:window-maximized="0"
     inkscape:current-layer="svg1" /><defs
     id="defs1"><linearGradient
       id="linearGradient7-2"><stop
         style="stop-color:#dcb134;stop-opacity:1;"
         offset="0"
         id="stop13" /><stop
         style="stop-color:#2463a9;stop-opacity:1;"
         offset="0.05458516"
         id="stop19" /><stop
         style="stop-color:#3779c3;stop-opacity:1;"
         offset="0.27701965"
         id="stop22" /><stop
         style="stop-color:#a557d1;stop-opacity:1;"
         offset="0.50068229"
         id="stop23" /><stop
         style="stop-color:#4a8fde;stop-opacity:1;"
         offset="0.81168121"
         id="stop21" /></linearGradient></defs><path
     style="display:inline;opacity:1;fill:#0000d5;fill-opacity:1;stroke-width:0.225181"
     d="m 84.621004,90.654836 c -1.245204,-0.03637 -2.570283,-0.103546 -2.944617,-0.149347 -0.374334,-0.04579 -0.905959,-0.08329 -1.181383,-0.08329 -0.476954,0 -1.507295,-0.124186 -2.767676,-0.333586 -1.11142,-0.18464 -1.543022,-0.631223 -1.210509,-1.252527 0.236633,-0.442159 1.95563,-0.954996 3.615891,-1.078755 1.814105,-0.135218 3.80072,-0.600197 4.866846,-1.139096 2.870754,-1.451115 3.879996,-4.628311 1.766296,-5.560447 -0.344945,-0.152124 -0.613588,-0.21592 -3.078057,-0.730993 -1.639564,-0.342677 -3.781349,-1.101894 -5.272123,-1.868867 -1.78978,-0.920808 -4.535888,-2.681404 -5.869367,-3.763002 -0.196611,-0.159471 -0.661328,-0.532634 -1.032704,-0.829251 -1.791613,-1.430957 -4.003985,-3.441881 -8.219098,-7.470701 -0.915968,-0.875487 -1.813308,-1.734785 -1.994088,-1.909549 -0.411013,-0.397339 -1.40919,-1.292006 -2.139548,-1.917683 -1.638082,-1.403296 -4.294961,-3.016223 -6.13583,-3.724915 -0.295366,-0.113709 -0.662144,-0.256282 -0.815065,-0.316831 -0.599375,-0.237325 -1.911081,-0.535589 -2.81949,-0.641115 -2.140485,-0.248651 -2.38127,-0.51725 -1.402104,-1.564056 1.913257,-2.045427 7.483838,-2.439891 13.555653,-0.959902 1.713318,0.417616 1.907781,0.468231 3.098114,0.806379 4.311005,1.224667 7.684891,1.345657 11.359749,0.407369 1.133681,-0.289459 1.19208,-0.307468 3.733623,-1.151348 6.024967,-2.000501 7.717492,-2.369559 10.803674,-2.355764 3.060571,0.01368 4.135938,0.286389 12.392459,3.142685 5.82899,2.016505 9.97532,1.973754 14.10039,-0.145384 4.93241,-2.533891 6.25828,-2.973974 8.97039,-2.977439 10.31781,-0.01319 11.65926,14.037796 1.53148,16.041336 -4.33504,0.857583 -8.52606,-3.06761 -6.50472,-6.092137 0.84719,-1.267629 1.60527,-1.17468 1.72568,0.211584 0.49356,5.682173 8.80369,3.852313 8.8118,-1.940331 0.006,-4.033581 -4.13963,-6.64669 -8.33841,-5.256362 -3.2599,1.07944 -5.42436,3.08466 -8.71782,8.076439 -1.21169,1.836512 -1.68483,2.528612 -2.89044,4.228038 -1.65271,2.329649 -4.84121,5.862861 -6.46407,7.162909 -1.65437,1.325292 -2.76994,2.082412 -4.23107,2.871574 -1.602941,0.865743 -3.073091,1.443227 -4.745511,1.864067 -2.29208,0.576764 -2.780371,0.946912 -2.883089,2.185589 -0.24009,2.895244 2.364759,4.733347 7.49054,5.285662 4.60802,0.496521 5.6858,2.029738 1.78737,2.542665 -2.637581,0.347026 -12.228243,0.553445 -17.953166,0.386382 z m 6.754821,-10.867373 c 0.696912,-0.17115 0.707633,-0.176302 2.579234,-1.238054 0.78645,-0.446149 1.68013,-0.947911 1.98597,-1.115016 0.30584,-0.167112 1.02079,-0.578041 1.58878,-0.913175 0.56799,-0.335133 1.38463,-0.816599 1.81476,-1.069917 1.780721,-1.048738 1.675461,-0.631895 1.703261,-6.745357 0.0306,-6.719907 0.4619,-5.784515 -3.716611,-8.05954 -0.19662,-0.107046 -1.00094,-0.560747 -1.78738,-1.008227 -0.78645,-0.447477 -1.68014,-0.947851 -1.985972,-1.11194 -0.305836,-0.16409 -0.645441,-0.360355 -0.754671,-0.436146 -1.870349,-1.297796 -2.647815,-1.256616 -5.020689,0.26594 -0.249124,0.159854 -0.47036,0.290642 -0.491631,0.290642 -0.02129,0 -0.586011,0.314627 -1.254975,0.69917 -0.668965,0.384546 -1.59165,0.90945 -2.050412,1.166455 -0.458754,0.257008 -0.92347,0.528249 -1.0327,0.602764 -0.109229,0.07451 -0.484578,0.28187 -0.834111,0.460792 -2.029533,1.038899 -1.906527,0.59273 -1.906527,6.915644 0,6.329808 -0.0231,6.23936 1.787371,7.005531 0.06552,0.02777 0.816231,0.452815 1.668214,0.944626 0.851983,0.491803 1.870784,1.074194 2.264005,1.294209 0.393221,0.219999 1.000929,0.5603 1.350461,0.756211 2.569375,1.440123 2.977887,1.569387 4.093623,1.295388 z m -2.353994,-2.59895 C 88.545287,76.936612 86.73617,75.93271 86.17152,75.606856 85.944396,75.475782 85.064704,74.979237 84.21666,74.50343 c -1.638794,-0.919477 -1.843501,-1.063811 -2.037249,-1.436395 -0.116314,-0.22368 -0.140026,-2.214404 -0.102439,-8.601469 0.0033,-0.514737 0.139116,-0.451832 4.768313,2.204074 0.284,0.162937 0.873827,0.48538 1.310745,0.716544 1.650867,0.873447 1.545159,0.48472 1.547314,5.689993 0.0016,3.777308 -0.01147,4.226692 -0.123916,4.269832 -0.163786,0.06282 -0.114332,0.07683 -0.557597,-0.157496 z m 2.563304,0.152754 c -0.02916,-0.02916 -0.05217,-1.950552 -0.05119,-4.269833 0.0016,-5.334011 -0.22026,-4.724923 2.222544,-6.085045 0.80829,-0.450046 1.72629,-0.97345 2.03999,-1.163122 0.3137,-0.18967 0.58539,-0.344855 0.60375,-0.344855 0.0183,0 0.60073,-0.322066 1.29419,-0.7157 0.69345,-0.393632 1.29758,-0.703449 1.34251,-0.688476 0.0543,0.01811 0.0885,1.53313 0.1022,4.526771 0.024,5.260357 0.17935,4.652248 -1.4107,5.521338 -0.54614,0.298508 -1.83305,1.026207 -2.8598,1.617108 -2.834936,1.631513 -3.116438,1.768844 -3.283468,1.601814 z M 47.805115,52.105272 c -0.936737,-1.228124 -0.753372,-2.856797 0.570149,-5.064162 1.626059,-2.711938 1.691599,-3.512735 0.457743,-5.592937 -1.017949,-1.7162 -1.184999,-2.197521 -1.17175,-3.376149 0.01574,-1.400584 0.451293,-2.408919 1.501213,-3.475448 0.684563,-0.695393 0.78317,-0.718894 0.499962,-0.119158 -0.86851,1.839203 -0.651445,3.185199 0.931994,5.779173 1.575882,2.581591 1.522454,4.647813 -0.172747,6.680673 -2.09126,2.507808 -2.48964,3.306315 -2.403768,4.818094 0.04042,0.711598 0.05047,0.695073 -0.212796,0.349914 z m 32.77824,-0.389634 c -0.127723,-0.185688 -0.660323,-1.052564 -1.183562,-1.926391 -0.52323,-0.873827 -1.224769,-2.029378 -1.558968,-2.567891 -0.3342,-0.538514 -0.607634,-0.990738 -0.607634,-1.00494 0,-0.0142 -0.214348,-0.377919 -0.476331,-0.808258 -0.602269,-0.9893 -0.641158,-0.868313 0.496193,-1.543701 0.535221,-0.317826 1.312727,-0.797724 1.727793,-1.066437 0.415073,-0.268715 0.897662,-0.572994 1.072424,-0.676175 0.17477,-0.103183 0.550111,-0.336039 0.834111,-0.517459 2.412672,-1.541259 2.41612,-1.54264 2.070699,-0.829559 -1.450877,2.995161 -0.997087,6.976309 1.037377,9.10116 0.281092,0.293575 0.351687,0.220049 -0.963227,1.003166 -2.240891,1.334587 -2.131883,1.297352 -2.448875,0.836485 z m 19.329614,0.243024 c -0.0874,-0.04937 -0.44485,-0.27461 -0.79438,-0.50054 -0.34954,-0.22593 -0.94799,-0.598446 -1.3299,-0.827814 -0.86084,-0.517001 -0.8434,-0.483778 -0.49315,-0.9396 1.86085,-2.42179 2.17197,-6.097496 0.75074,-8.869612 -0.42623,-0.831369 -0.32351,-0.79109 2.397901,0.940213 0.31952,0.20327 0.77755,0.486896 1.01785,0.630282 0.24031,0.143384 0.75864,0.462295 1.15187,0.70869 0.39322,0.246395 1.06349,0.653875 1.48947,0.905513 0.96143,0.567927 0.96986,0.517643 -0.45677,2.725059 -0.18354,0.283994 -0.71985,1.159807 -1.19179,1.946251 -0.47193,0.786444 -0.98714,1.626509 -1.1449,1.866812 -0.15777,0.240302 -0.42938,0.677584 -0.60357,0.971737 -0.329,0.555534 -0.46237,0.630009 -0.793371,0.443009 z M 89.53058,51.332003 c -6.400506,-0.938654 -7.803313,-9.818978 -2.010065,-12.724548 4.797677,-2.406245 10.529794,1.775935 9.609654,7.011255 -0.66423,3.779338 -3.948863,6.248683 -7.599589,5.713293 z m 2.337835,-2.815711 c 2.703124,-0.909492 3.741724,-3.896665 2.189044,-6.296071 -1.579224,-2.440427 -5.194173,-2.603487 -6.934645,-0.312802 -2.538397,3.34086 0.768988,7.946838 4.745601,6.608873 z M 73.151573,44.186077 c -1.047186,-0.313541 -1.147615,-1.669797 -0.172489,-2.329395 0.591867,-0.400352 2.075628,-1.353848 3.340563,-2.146714 0.61168,-0.383402 1.594737,-1.002852 2.184565,-1.376553 2.773671,-1.757319 2.834674,-1.786918 3.311398,-1.606797 1.562131,0.590212 1.223508,1.65258 -0.967953,3.03677 -0.830131,0.524339 -2.385144,1.507762 -3.455586,2.185384 -1.070434,0.677622 -2.179822,1.378409 -2.465296,1.557303 -0.285474,0.178894 -0.589328,0.370665 -0.675231,0.426158 -0.4876,0.314989 -0.718097,0.368182 -1.099971,0.253844 z m 33.942587,-0.103856 c -0.3022,-0.160879 -1.03413,-0.617534 -3.48728,-2.175755 -0.50294,-0.319462 -2.74833,-1.726951 -3.772651,-2.364824 -1.48765,-0.926407 -1.7162,-1.313824 -1.2883,-2.183861 0.51483,-1.046805 0.99325,-0.972844 3.257041,0.503527 0.62687,0.408815 1.31599,0.84448 1.53141,0.968146 0.21541,0.123667 0.80275,0.492898 1.30521,0.820516 1.08647,0.708427 1.55147,1.004112 2.57806,1.639325 1.55517,0.962294 1.85554,1.315835 1.63678,1.926543 -0.31701,0.885036 -1.04873,1.245176 -1.76027,0.866383 z M 70.645396,40.90952 c -1.185772,-0.484702 -1.060665,-1.502957 0.293125,-2.385744 0.737321,-0.480797 0.998823,-0.649741 2.561049,-1.654568 0.762425,-0.490392 2.39456,-1.532804 3.553379,-2.269465 2.045333,-1.300219 2.798227,-1.367361 3.248511,-0.289695 0.354996,0.849637 0.221318,0.987475 -2.790232,2.877014 -0.43691,0.274133 -1.419967,0.904392 -2.184565,1.400576 -4.179678,2.712388 -3.97468,2.610711 -4.681267,2.321882 z m 38.879674,0.0093 c -0.39078,-0.215432 -2.27471,-1.356041 -2.75502,-1.667999 -0.29191,-0.18959 -0.77449,-0.497052 -1.07243,-0.683249 -0.29792,-0.186196 -0.98852,-0.621144 -1.53466,-0.96655 -0.54615,-0.345406 -1.42197,-0.896798 -1.94626,-1.225315 -1.736,-1.08775 -2.02118,-1.9987 -0.84352,-2.694363 0.5764,-0.340484 1.12895,-0.09236 3.94163,1.77 0.43691,0.289292 1.09824,0.715374 1.46962,0.946849 4.17772,2.603926 4.13675,2.575962 4.33697,2.960747 0.46386,0.891532 -0.71648,2.044931 -1.59633,1.55988 z M 68.180413,37.705086 c -0.983621,-0.827662 -0.682474,-1.706863 0.936029,-2.732744 1.442258,-0.914168 1.79495,-1.140089 2.719542,-1.742035 4.671891,-3.041581 4.802784,-3.104541 5.461879,-2.627097 1.052063,0.762113 0.787524,1.594535 -0.819794,2.579568 -0.694167,0.425416 -2.307235,1.464273 -4.988259,3.212567 -2.559909,1.669316 -2.779014,1.75603 -3.309397,1.309741 z m 43.688097,0.102746 c -0.10922,-0.05738 -0.50245,-0.300905 -0.87382,-0.541157 -0.37138,-0.240253 -0.97909,-0.627691 -1.35046,-0.860974 -0.37138,-0.233283 -0.86739,-0.546968 -1.10224,-0.697075 -0.23485,-0.15011 -1.20004,-0.764432 -2.14485,-1.365162 -3.31366,-2.106895 -3.11966,-1.949527 -3.16604,-2.568196 -0.0551,-0.735072 0.47032,-1.40831 1.09941,-1.408684 0.27658,-1.65e-4 0.90054,0.338617 2.33476,1.267687 0.65537,0.424539 1.46929,0.947473 1.80872,1.162077 0.33943,0.214604 0.9511,0.608362 1.35927,0.875016 0.40817,0.266656 1.30484,0.836951 1.9926,1.267322 1.38305,0.865456 1.63144,1.119659 1.63144,1.669666 0,0.903113 -0.88341,1.570057 -1.58879,1.19948 z m -25.983103,-0.007 c -0.01818,-0.01805 -0.01523,-0.689987 0.0066,-1.493188 0.06405,-2.355365 -0.311593,-2.180331 4.664342,-2.173338 5.01126,0.007 4.72744,-0.129007 4.77571,2.289311 0.0146,0.73183 0.0108,1.3306 -0.009,1.3306 -0.0192,0 -0.35293,-0.183415 -0.7415,-0.40759 -2.5009,-1.442826 -7.117065,-1.240358 -8.454209,0.370809 -0.09649,0.116264 -0.180299,0.145084 -0.242498,0.0834 z"
     id="path2"
     inkscape:label="main layer" /></svg>
