<?xml version="1.0" encoding="UTF-8" standalone="no"?>
<!-- Created with Inkscape (http://www.inkscape.org/) -->

<svg
   width="173.72736mm"
   height="120.15457mm"
   viewBox="0 0 173.72736 120.15457"
   version="1.1"
   id="svg1"
   xml:space="preserve"
   inkscape:version="1.4.2 (ebf0e940, 2025-05-08)"
   sodipodi:docname="logo-full.svg"
   inkscape:export-filename="../Downloads/logo-full.svg"
   inkscape:export-xdpi="96"
   inkscape:export-ydpi="96"
   xmlns:inkscape="http://www.inkscape.org/namespaces/inkscape"
   xmlns:sodipodi="http://sodipodi.sourceforge.net/DTD/sodipodi-0.dtd"
   xmlns="http://www.w3.org/2000/svg"
   xmlns:svg="http://www.w3.org/2000/svg"><sodipodi:namedview
     id="namedview1"
     pagecolor="#ffffff"
     bordercolor="#000000"
     borderopacity="0.25"
     inkscape:showpageshadow="2"
     inkscape:pageopacity="0.0"
     inkscape:pagecheckerboard="0"
     inkscape:deskcolor="#d1d1d1"
     inkscape:document-units="mm"
     inkscape:zoom="1.4289282"
     inkscape:cx="223.94407"
     inkscape:cy="214.84634"
     inkscape:window-width="1920"
     inkscape:window-height="951"
     inkscape:window-x="1024"
     inkscape:window-y="25"
     inkscape:window-maximized="0"
     inkscape:current-layer="svg1" /><defs
     id="defs1"><linearGradient
       id="linearGradient7-2"><stop
         style="stop-color:#dcb134;stop-opacity:1;"
         offset="0"
         id="stop13" /><stop
         style="stop-color:#2463a9;stop-opacity:1;"
         offset="0.05458516"
         id="stop19" /><stop
         style="stop-color:#3779c3;stop-opacity:1;"
         offset="0.27701965"
         id="stop22" /><stop
         style="stop-color:#a557d1;stop-opacity:1;"
         offset="0.50068229"
         id="stop23" /><stop
         style="stop-color:#4a8fde;stop-opacity:1;"
         offset="0.81168121"
         id="stop21" /></linearGradient></defs><path
     style="display:inline;opacity:1;fill:#0000d5;fill-opacity:1;stroke-width:0.448347"
     d="m 74.469344,120.03717 c -2.479267,-0.0724 -5.117567,-0.20617 -5.862888,-0.29737 -0.745322,-0.0912 -1.803815,-0.16583 -2.352206,-0.16583 -0.949633,0 -3.00109,-0.24726 -5.510582,-0.66418 -2.212898,-0.36764 -3.07224,-1.25681 -2.410195,-2.49385 0.47116,-0.88037 3.893761,-1.90146 7.199439,-2.14786 3.611984,-0.26923 7.567434,-1.19502 9.690146,-2.26801 5.715831,-2.88925 7.725295,-9.21521 3.516793,-11.07115 -0.686807,-0.30288 -1.221675,-0.4299 -6.128579,-1.455443 -3.264459,-0.68228 -7.528865,-2.19393 -10.497082,-3.72102 -3.563546,-1.83337 -9.031191,-5.338816 -11.68622,-7.49233 C 50.036506,87.942607 49.11123,87.19962 48.3718,86.609039 44.804602,83.759927 40.39965,79.75607 32.007132,71.73447 30.18339,69.991328 28.396739,68.280421 28.036797,67.932455 27.218447,67.141332 25.231023,65.36 23.776841,64.114245 20.51533,61.320208 15.225341,58.108782 11.56007,56.697739 10.971982,56.471337 10.241706,56.187466 9.937234,56.06691 8.743845,55.594383 6.132167,55.000525 4.323477,54.790416 0.06165401,54.295338 -0.41776099,53.760545 1.531812,51.676295 5.34121,47.60374 16.432538,46.818342 28.521849,49.765079 c 3.411309,0.831497 3.798493,0.932273 6.168511,1.605546 8.583445,2.438377 15.301033,2.679274 22.617871,0.811092 2.257219,-0.576328 2.3735,-0.612186 7.433847,-2.292397 11.996039,-3.983104 15.36595,-4.717919 21.510703,-4.690453 6.093755,0.02724 8.234865,0.570218 24.674049,6.257256 11.60583,4.01497 19.8614,3.929851 28.07463,-0.289467 9.8207,-5.045114 12.46059,-5.921343 17.86054,-5.928242 20.5433,-0.02625 23.21421,27.95001 3.04925,31.939166 -8.6313,1.707495 -16.97584,-6.107776 -12.95123,-12.129773 1.68678,-2.523917 3.19616,-2.338853 3.43591,0.421276 0.9827,11.313512 17.52861,7.670162 17.54478,-3.863305 0.0113,-8.031078 -8.24225,-13.233918 -16.60223,-10.465702 -6.49064,2.149225 -10.8002,6.141725 -17.35766,16.080627 -2.41254,3.656595 -3.35459,5.034603 -5.75503,8.418253 -3.29063,4.638456 -9.6391,11.673279 -12.87029,14.261731 -3.29395,2.63873 -5.51511,4.1462 -8.4243,5.71746 -3.19154,1.72374 -6.11869,2.87355 -9.448564,3.71146 -4.56366,1.148373 -5.53586,1.885363 -5.74038,4.351623 -0.47804,5.7646 4.70836,9.42436 14.914064,10.52404 9.1748,0.9886 11.32072,4.04132 3.55876,5.06258 -5.25159,0.69096 -24.347106,1.10194 -35.745736,0.76932 z M 87.918556,98.399637 c 1.38759,-0.34077 1.40894,-0.35102 5.1354,-2.46503 1.56586,-0.88831 3.34523,-1.88734 3.95417,-2.22006 0.60895,-0.33272 2.03245,-1.150902 3.163354,-1.818177 1.13089,-0.667275 2.75687,-1.625895 3.61328,-2.130272 3.5455,-2.088079 3.33593,-1.258121 3.39127,-13.430362 0.0608,-13.379698 0.91967,-11.517281 -7.399974,-16.046978 -0.39147,-0.213135 -1.99291,-1.116479 -3.55876,-2.007434 -1.56585,-0.890951 -3.34523,-1.887224 -3.95417,-2.213934 -0.60894,-0.326711 -1.28511,-0.717486 -1.50259,-0.86839 -3.723974,-2.583982 -5.271951,-2.501989 -9.996458,0.529502 -0.496025,0.318277 -0.936514,0.578682 -0.978865,0.578682 -0.04235,0 -1.166779,0.626439 -2.498727,1.392086 -1.331949,0.765652 -3.169064,1.810763 -4.082477,2.322475 -0.913414,0.511716 -1.838691,1.051773 -2.056171,1.200136 -0.217479,0.148358 -0.964818,0.561218 -1.660752,0.917461 -4.040909,2.068504 -3.796007,1.180158 -3.796007,13.76942 0,12.602995 -0.04595,12.422898 3.558756,13.948395 0.130488,0.05522 1.625166,0.901582 3.321506,1.880794 1.69634,0.979213 3.724831,2.138786 4.507758,2.576836 0.782926,0.43804 1.992903,1.11559 2.688837,1.50566 5.115764,2.86736 5.929136,3.12474 8.15062,2.57919 z m -4.686931,-5.17465 C 82.282814,92.723432 78.680749,90.724619 77.55651,90.07583 77.104287,89.814851 75.352779,88.826205 73.664271,87.878839 70.401352,86.048116 69.993761,85.760739 69.608,85.018904 69.37641,84.573547 69.329207,80.609907 69.404046,67.892915 c 0.006,-1.024868 0.276984,-0.899622 9.493972,4.388431 0.565447,0.324415 1.739837,0.966417 2.609755,1.426677 3.286971,1.73908 3.076498,0.965103 3.080781,11.329083 0.0031,7.520828 -0.02286,8.415571 -0.246713,8.501471 -0.326104,0.12514 -0.227646,0.15295 -1.110216,-0.31359 z m 5.103691,0.30415 c -0.058,-0.058 -0.10389,-3.883653 -0.10198,-8.501473 0.004,-10.620305 -0.43855,-9.407579 4.4252,-12.115655 1.60936,-0.896066 3.43713,-1.938191 4.06174,-2.315839 0.6246,-0.377642 1.16554,-0.686625 1.20208,-0.686625 0.0365,0 1.1961,-0.641249 2.576814,-1.424996 1.38071,-0.783742 2.58356,-1.400605 2.67301,-1.370794 0.1082,0.03605 0.17631,3.052545 0.20348,9.013047 0.0478,10.473655 0.3571,9.262876 -2.80877,10.993281 -1.087394,0.594351 -3.649704,2.043239 -5.694014,3.219742 -5.64452,3.248442 -6.205,3.521872 -6.53756,3.189312 z M 1.166925,43.282903 C -0.69816799,40.83764 -0.33307999,37.594867 2.302122,33.199882 5.539693,27.800268 5.670186,26.205839 3.213514,22.064043 1.186722,18.646997 0.85411501,17.68866 0.88049501,15.341948 0.91184501,12.553311 1.779045,10.54566 3.869491,8.422144 5.232495,7.037579 5.428826,6.990786 4.864943,8.184894 c -1.729251,3.661951 -1.297061,6.341904 1.855651,11.506645 3.137665,5.140088 3.031287,9.254048 -0.343948,13.30158 -4.163812,4.993181 -4.957007,6.583053 -4.786032,9.593085 0.08048,1.416832 0.100487,1.383929 -0.423689,0.696699 z M 66.430168,42.50712 c -0.254298,-0.369715 -1.314736,-2.095712 -2.356527,-3.835548 -1.041792,-1.739837 -2.438589,-4.040602 -3.103994,-5.112811 -0.665405,-1.07221 -1.209828,-1.97261 -1.209828,-2.000889 0,-0.02828 -0.426781,-0.752457 -0.948402,-1.609284 -1.19915,-1.969752 -1.27658,-1.72886 0.987944,-3.073592 1.065649,-0.63281 2.613708,-1.588311 3.440131,-2.123336 0.826422,-0.535024 1.787286,-1.14086 2.135253,-1.346301 0.347967,-0.205441 1.095306,-0.66907 1.660753,-1.030287 4.803766,-3.06873 4.810633,-3.071481 4.12288,-1.651697 -2.888772,5.963527 -1.985263,13.890208 2.065479,18.120901 0.559659,0.584523 0.700226,0.438128 -1.917852,1.997357 -4.461726,2.657235 -4.244684,2.583098 -4.875837,1.665487 z m 38.486312,0.483874 c -0.17398,-0.09829 -0.88573,-0.546765 -1.58166,-0.996602 -0.69594,-0.449838 -1.88749,-1.191538 -2.6479,-1.648223 -1.713964,-1.029376 -1.679254,-0.963228 -0.981894,-1.870793 3.705064,-4.821914 4.324514,-12.140445 1.494764,-17.659878 -0.84865,-1.655298 -0.64412,-1.575101 4.77435,1.872015 0.63617,0.404722 1.54814,0.969438 2.0266,1.254926 0.47845,0.285487 1.51049,0.920455 2.29342,1.41104 0.78293,0.490585 2.11746,1.301901 2.96563,1.802925 1.91426,1.130773 1.93104,1.030656 -0.90947,5.42574 -0.36544,0.565447 -1.43324,2.309238 -2.3729,3.875091 -0.93965,1.565852 -1.96546,3.238468 -2.27957,3.716923 -0.31412,0.478455 -0.8549,1.349106 -1.20174,1.934781 -0.65505,1.106099 -0.9206,1.254382 -1.57963,0.882055 z M 84.244578,41.743281 C 71.500819,39.874372 68.707768,22.193166 80.242437,16.40802 c 9.552429,-4.790963 20.965373,3.535983 19.133339,13.959787 -1.32253,7.524865 -7.8624,12.441464 -15.131198,11.375474 z m 4.654748,-5.606231 c 5.38208,-1.810848 7.44998,-7.758471 4.35851,-12.535819 -3.14431,-4.859021 -10.341877,-5.183682 -13.80725,-0.622805 -5.054091,6.651834 1.531102,15.822584 9.44874,13.158624 z M 51.633091,27.515358 c -2.085004,-0.624277 -2.284964,-3.324656 -0.343434,-4.637951 1.178439,-0.797123 4.13269,-2.695585 6.651242,-4.274224 1.217886,-0.763375 3.175202,-1.996732 4.349591,-2.740792 5.522525,-3.498916 5.643979,-3.557849 6.593173,-3.199219 3.110277,1.175144 2.436059,3.290376 -1.927248,6.046373 -1.652845,1.043987 -4.748962,3.002035 -6.880262,4.351218 -2.1313,1.349183 -4.34014,2.744487 -4.908534,3.100674 -0.568395,0.356188 -1.173383,0.738014 -1.34442,0.848503 -0.970845,0.627162 -1.429775,0.733071 -2.190108,0.505418 z m 67.581519,-0.206783 c -0.60171,-0.32032 -2.059,-1.229543 -6.94336,-4.332045 -1.00138,-0.636066 -5.47208,-3.438452 -7.51155,-4.708494 -2.96199,-1.844526 -3.41704,-2.615893 -2.56508,-4.348184 1.02506,-2.084246 1.97762,-1.936984 6.48496,1.00255 1.24811,0.813971 2.6202,1.681405 3.0491,1.927631 0.4289,0.246226 1.59833,0.981386 2.59874,1.633691 2.16323,1.410516 3.08908,1.999241 5.13305,3.263985 3.09644,1.915979 3.69449,2.619898 3.25894,3.835851 -0.63119,1.762154 -2.08808,2.479213 -3.5048,1.725015 z M 46.643158,20.991557 c -2.360937,-0.965069 -2.111841,-2.992469 0.583627,-4.750146 1.468047,-0.957293 1.988711,-1.293669 5.099188,-3.294334 1.518025,-0.976397 4.767704,-3.051895 7.074972,-4.518629 4.072361,-2.588805 5.571424,-2.722489 6.467951,-0.576798 0.706827,1.691675 0.440665,1.966116 -5.555492,5.728291 -0.869919,0.545814 -2.827235,1.800694 -4.349592,2.788623 -8.321964,5.400512 -7.913802,5.198065 -9.320654,4.622993 z m 77.411522,0.01856 c -0.77806,-0.428938 -4.52907,-2.699953 -5.48539,-3.321077 -0.5812,-0.377484 -1.54206,-0.989658 -2.13526,-1.360386 -0.59319,-0.370727 -1.96822,-1.236731 -3.05561,-1.924453 -1.0874,-0.687722 -2.8312,-1.785573 -3.8751,-2.439668 -3.45645,-2.165769 -4.02427,-3.979519 -1.67948,-5.364622 1.14763,-0.677921 2.24778,-0.183894 7.84799,3.524164 0.86992,0.575997 2.18666,1.42435 2.92609,1.885229 8.31807,5.184556 8.23651,5.128879 8.63513,5.895006 0.92358,1.775089 -1.42655,4.071568 -3.17837,3.105807 z M 41.735243,14.611356 C 39.776801,12.963436 40.376401,11.212898 43.598927,9.170315 46.470541,7.350156 47.17277,6.900334 49.013683,5.701829 58.315669,-0.35412378 58.576292,-0.47948028 59.888581,0.47113682 61.9833,1.9885437 61.456574,3.645942 58.256327,5.607195 c -1.382122,0.847026 -4.593828,2.915447 -9.931894,6.396396 -5.096919,3.323697 -5.533169,3.496349 -6.58919,2.607765 z m 86.985367,0.204572 c -0.21748,-0.114256 -1.00041,-0.599119 -1.73984,-1.077474 -0.73943,-0.478355 -1.94941,-1.249766 -2.68884,-1.714245 -0.73943,-0.464479 -1.727,-1.089041 -2.19461,-1.387915 -0.46761,-0.298875 -2.38934,-1.522025 -4.27051,-2.718111 C 111.22913,3.723242 111.61539,4.036569 111.52304,2.8047665 111.41332,1.3411989 112.45947,7.4611941e-4 113.71203,1.1940941e-7 114.26272,-3.2768059e-4 115.50505,0.67420582 118.36067,2.5240345 c 1.30488,0.8452785 2.92544,1.8864695 3.60125,2.3137585 0.67582,0.427288 1.89369,1.211281 2.70638,1.742205 0.8127,0.530925 2.59802,1.666412 3.96738,2.523305 2.75372,1.72317 3.24827,2.229302 3.24827,3.324395 0,1.798148 -1.7589,3.126068 -3.16334,2.38823 z m -51.733775,-0.01383 c -0.03625,-0.03594 -0.03032,-1.373803 0.01318,-2.973018 0.12755,-4.68966 -0.620394,-4.341158 9.286961,-4.327235 9.97768,0.01402 9.4126,-0.25686 9.50869,4.558143 0.0291,1.457113 0.0215,2.649296 -0.0169,2.649296 -0.0383,0 -0.70272,-0.36519 -1.47638,-0.811534 -4.97942,-2.872745 -14.170453,-2.469619 -16.832789,0.7383 -0.192119,0.231489 -0.358971,0.288871 -0.482827,0.166048 z"
     id="path2"
     inkscape:label="main layer" /></svg>
